<?xml version="1.0" standalone="no"?>
<!DOCTYPE svg PUBLIC "-//W3C//DTD SVG 20010904//EN"
 "http://www.w3.org/TR/2001/REC-SVG-20010904/DTD/svg10.dtd">
<svg version="1.0" xmlns="http://www.w3.org/2000/svg"
 width="534.000000pt" height="534.000000pt" viewBox="0 0 534.000000 534.000000"
 preserveAspectRatio="xMidYMid meet">
<metadata>
Created by potrace 1.14, written by Peter Selinger 2001-2017
</metadata>
<g transform="translate(0.000000,534.000000) scale(0.100000,-0.100000)"
fill="#000000" stroke="none">
<path d="M2955 4865 c-66 -24 -244 -87 -395 -140 -324 -113 -637 -223 -770
-270 -94 -33 -362 -127 -720 -251 -353 -123 -406 -144 -453 -182 -77 -63 -128
-165 -158 -317 -21 -112 -17 -520 6 -543 2 -3 -15 -26 -39 -52 -74 -79 -122
-197 -142 -345 -12 -96 -11 -355 2 -435 21 -137 70 -255 127 -308 21 -20 23
-28 17 -67 -7 -49 -5 -299 5 -415 16 -201 99 -359 228 -434 23 -14 121 -57
217 -96 96 -40 191 -79 210 -87 19 -8 44 -19 55 -24 11 -4 61 -25 110 -45 50
-20 104 -42 120 -49 17 -8 66 -28 110 -45 44 -18 94 -38 110 -45 108 -48 689
-285 697 -285 10 0 281 111 332 136 16 8 33 14 38 14 5 0 28 8 51 19 23 10
110 47 192 80 83 34 164 68 180 75 38 18 415 174 560 233 61 24 124 51 140 58
17 7 152 63 300 124 149 62 279 116 290 121 23 11 459 191 610 252 55 22 103
43 107 47 4 3 -67 33 -157 66 -163 59 -165 60 -166 90 0 37 0 478 0 523 1 17
6 32 11 32 10 0 217 85 288 118 l34 15 -244 91 -243 92 -3 247 -2 248 47 20
c27 11 61 26 78 34 16 7 104 43 195 80 91 38 168 71 172 74 5 4 -66 34 -157
66 l-165 60 0 98 c-1 124 -1 329 0 410 l0 63 153 64 c83 35 155 65 159 65 3 0
9 3 13 6 6 7 -23 19 -270 109 -77 29 -216 80 -310 115 -180 67 -438 162 -750
277 -104 38 -201 74 -215 80 -14 5 -81 30 -150 55 -69 24 -134 48 -145 53 -28
12 -186 70 -188 69 -1 0 -56 -20 -122 -44z m1550 -1177 l0 -203 -95 -41 c-52
-24 -103 -43 -112 -43 -10 -1 -18 -5 -18 -9 0 -5 -6 -9 -12 -9 -7 0 -38 -11
-68 -25 -30 -13 -75 -33 -100 -43 -25 -10 -58 -23 -75 -30 -16 -7 -86 -36
-155 -65 -69 -29 -138 -58 -155 -65 -160 -71 -1394 -578 -1405 -577 -8 0 -96
33 -195 72 -348 139 -712 283 -950 376 -132 52 -269 107 -305 122 l-65 28 0
213 c0 117 2 214 6 216 3 3 86 -27 185 -66 98 -38 283 -110 409 -160 127 -49
257 -101 290 -114 55 -22 388 -152 560 -219 l70 -27 340 136 c187 75 354 143
370 150 17 7 111 45 210 85 193 77 202 80 255 103 19 8 127 52 240 97 113 45
221 88 240 96 158 67 526 212 530 209 3 -2 6 -95 5 -207z m-160 -892 c-1 -111
-5 -200 -10 -205 -6 -5 -71 -34 -145 -64 -326 -135 -1258 -520 -1285 -532 -16
-7 -120 -50 -230 -95 -110 -45 -219 -91 -242 -101 -23 -11 -45 -19 -48 -19 -4
0 -21 -6 -38 -14 -98 -45 -184 -78 -202 -78 -11 0 -38 8 -60 18 -22 10 -42 18
-45 19 -3 0 -120 46 -260 102 -140 56 -433 172 -650 258 -217 85 -419 165
-447 177 l-53 22 0 219 c0 205 1 219 18 213 54 -21 1232 -490 1257 -501 17 -8
88 -36 158 -64 l129 -50 336 141 c186 77 362 151 392 163 77 31 609 253 645
270 17 7 48 20 70 29 22 9 51 22 65 27 316 134 636 266 640 264 3 -2 5 -91 5
-199z m152 -816 c-2 -121 -6 -223 -10 -226 -4 -4 -37 -20 -75 -34 -37 -15
-121 -50 -187 -77 -66 -28 -194 -81 -285 -118 -91 -37 -183 -75 -205 -85 -22
-9 -87 -36 -145 -60 -58 -23 -118 -48 -135 -55 -16 -7 -151 -63 -300 -124
-251 -104 -360 -149 -410 -171 -11 -5 -87 -36 -170 -70 -82 -33 -177 -72 -211
-86 l-61 -26 -209 82 c-115 46 -258 102 -319 126 -60 23 -202 79 -315 124
-113 45 -261 103 -330 130 -69 27 -174 68 -235 92 l-110 44 -3 188 c-2 149 0
187 10 183 7 -3 245 -100 528 -216 283 -116 524 -215 535 -220 47 -23 270
-111 279 -111 9 0 147 52 241 91 17 7 32 13 35 13 3 1 120 47 260 103 140 56
395 156 565 223 171 67 324 128 340 135 17 7 199 79 405 161 206 81 407 160
445 175 39 16 71 28 72 29 2 0 1 -99 0 -220z"/>
</g>
</svg>
