<?xml version="1.0" standalone="no"?>
<!DOCTYPE svg PUBLIC "-//W3C//DTD SVG 20010904//EN"
 "http://www.w3.org/TR/2001/REC-SVG-20010904/DTD/svg10.dtd">
<svg version="1.0" xmlns="http://www.w3.org/2000/svg"
 width="1125.000000pt" height="1125.000000pt" viewBox="0 0 1125.000000 1125.000000"
 preserveAspectRatio="xMidYMid meet">
<metadata>
Created by potrace 1.14, written by Peter Selinger 2001-2017
</metadata>
<g transform="translate(0.000000,1125.000000) scale(0.100000,-0.100000)"
fill="#000000" stroke="none">
<path d="M5790 10171 c0 -3 -28 -7 -62 -7 -114 -2 -193 -8 -210 -16 -12 -6
-18 -5 -18 3 0 8 -4 8 -12 2 -7 -6 -32 -9 -55 -8 -24 2 -41 0 -39 -4 2 -3 -24
-6 -57 -5 -34 0 -66 -2 -72 -5 -10 -5 -58 -12 -110 -14 -16 -1 -33 -6 -37 -12
-5 -6 -8 -5 -8 3 0 9 -5 10 -17 4 -10 -5 -24 -7 -30 -5 -7 3 -13 1 -13 -4 0
-5 -13 -8 -29 -5 -16 2 -32 -1 -36 -8 -5 -8 -10 -8 -21 1 -9 7 -14 8 -14 1 0
-6 -8 -11 -17 -11 -10 1 -36 -2 -58 -6 -22 -4 -55 -7 -72 -8 -18 -1 -33 -4
-33 -7 0 -3 -8 -6 -17 -7 -10 -1 -27 -4 -38 -6 -11 -2 -46 -7 -77 -11 -32 -5
-58 -11 -58 -15 0 -4 -10 -7 -22 -8 -39 -1 -110 -13 -121 -20 -10 -6 -51 -14
-84 -16 -7 0 -13 -3 -13 -7 0 -3 -8 -6 -17 -6 -10 -1 -31 -4 -48 -9 -16 -4
-40 -7 -52 -8 -13 -1 -23 -5 -23 -9 0 -4 -3 -7 -7 -7 -16 3 -93 -14 -93 -20 0
-4 -14 -8 -31 -9 -18 -1 -37 -6 -43 -9 -11 -7 -15 -9 -51 -15 -11 -2 -26 -7
-32 -11 -7 -5 -17 -5 -23 -2 -5 3 -10 1 -10 -5 0 -6 -6 -10 -12 -9 -14 2 -42
-7 -72 -22 -14 -8 -16 -7 -10 2 4 7 -3 5 -15 -4 -13 -8 -30 -13 -37 -10 -8 3
-14 0 -14 -7 0 -6 -6 -10 -12 -7 -7 2 -36 -6 -65 -19 -28 -12 -54 -20 -57 -17
-3 3 -12 0 -20 -6 -8 -7 -19 -10 -25 -7 -5 3 -11 2 -13 -4 -2 -6 -13 -12 -26
-15 -13 -2 -36 -11 -53 -19 -16 -8 -27 -11 -24 -6 5 8 -57 -18 -98 -41 -10 -5
-22 -7 -27 -4 -6 4 -10 1 -10 -4 0 -6 -3 -10 -7 -10 -21 3 -33 -2 -27 -13 4
-7 3 -8 -5 -4 -6 4 -18 2 -26 -4 -8 -7 -15 -9 -15 -5 0 4 -7 2 -15 -5 -8 -7
-15 -10 -15 -6 0 3 -18 -4 -40 -15 -21 -11 -45 -22 -52 -23 -7 -1 -24 -8 -38
-16 -14 -8 -31 -15 -39 -16 -8 -2 -17 -6 -20 -11 -3 -4 -15 -10 -26 -11 -11
-2 -23 -9 -27 -15 -4 -7 -8 -9 -8 -4 0 4 -10 1 -23 -8 -13 -8 -27 -12 -30 -8
-4 3 -7 1 -7 -6 0 -7 -4 -9 -10 -6 -5 3 -10 2 -10 -3 0 -5 -18 -15 -40 -22
-22 -7 -40 -16 -40 -21 0 -6 -42 -21 -56 -18 -4 0 -10 -4 -13 -9 -7 -10 -67
-43 -77 -41 -4 0 -10 -3 -13 -8 -3 -4 -24 -17 -46 -28 -22 -11 -42 -22 -45
-26 -3 -3 -23 -13 -45 -23 -22 -11 -42 -22 -45 -26 -3 -4 -17 -13 -32 -21 -60
-31 -143 -82 -149 -91 -3 -5 -8 -9 -10 -7 -6 4 -93 -53 -97 -62 -2 -5 -10 -9
-18 -9 -9 0 -12 -5 -8 -12 5 -7 3 -8 -6 -3 -7 4 -15 3 -19 -2 -3 -5 -26 -23
-51 -40 l-45 -31 0 -2483 0 -2484 23 -3 c12 -2 22 -8 22 -14 0 -5 6 -8 13 -5
6 2 27 -4 44 -15 18 -11 33 -17 33 -14 0 3 16 -3 35 -14 20 -11 44 -20 55 -20
11 0 20 -4 20 -10 0 -5 8 -10 18 -10 10 0 23 -5 30 -12 7 -7 12 -8 12 -4 0 5
6 4 13 -1 6 -6 29 -16 50 -22 20 -7 37 -17 37 -22 0 -6 4 -8 9 -5 9 6 91 -24
91 -33 0 -4 12 -8 27 -9 15 -1 30 -7 34 -13 4 -7 12 -8 19 -4 9 5 11 4 6 -3
-4 -7 -1 -13 8 -13 23 -2 27 -3 70 -22 21 -9 45 -17 53 -17 8 0 11 -5 7 -11
-4 -8 0 -9 15 -4 11 3 21 2 21 -3 0 -6 12 -13 26 -16 14 -4 45 -15 68 -25 22
-10 55 -24 71 -31 17 -8 33 -13 38 -12 4 1 7 -3 7 -10 0 -6 3 -9 6 -5 8 7 64
-13 64 -24 0 -4 6 -6 14 -3 8 3 17 1 21 -5 3 -6 15 -11 26 -11 10 0 19 -4 19
-9 0 -8 56 -25 73 -22 4 0 7 -4 7 -10 0 -5 5 -7 10 -4 6 3 10 1 10 -6 0 -7 3
-10 6 -6 4 3 23 -2 44 -13 21 -11 40 -16 44 -13 3 4 6 1 6 -5 0 -7 9 -12 19
-12 11 0 23 -4 26 -10 3 -5 13 -10 20 -10 8 0 40 -12 72 -27 32 -15 64 -26 71
-25 6 2 12 -2 12 -8 0 -6 5 -8 10 -5 6 3 10 1 10 -4 0 -6 3 -10 8 -9 4 2 32
-7 62 -19 78 -32 114 -45 119 -43 2 1 7 -2 10 -7 8 -10 100 -45 123 -46 9 -1
14 -5 12 -9 -3 -5 9 -11 26 -14 17 -4 33 -11 36 -15 3 -5 10 -7 15 -4 5 4 9 1
9 -4 0 -6 3 -10 8 -9 8 1 39 -9 64 -23 10 -5 25 -9 33 -9 8 0 15 -4 15 -9 0
-6 9 -8 20 -6 11 2 18 0 15 -4 -2 -5 16 -14 40 -21 25 -7 45 -17 45 -21 0 -5
3 -8 8 -7 4 1 23 -3 42 -10 19 -7 35 -11 35 -10 1 2 13 -5 28 -15 15 -9 27
-15 27 -12 0 4 12 0 28 -8 15 -8 38 -19 52 -24 14 -6 36 -15 50 -21 14 -6 32
-13 40 -14 8 -2 21 -9 28 -15 7 -7 20 -14 28 -14 8 -1 17 -3 22 -4 4 -2 17 -6
30 -10 12 -4 22 -11 22 -16 0 -5 3 -8 8 -8 15 3 72 -14 72 -21 0 -7 56 -22 63
-17 2 1 11 -6 21 -16 10 -9 22 -15 27 -12 5 4 9 1 9 -4 0 -6 3 -10 8 -9 11 4
106 -35 114 -46 4 -6 8 -7 8 -3 0 4 10 2 23 -5 12 -7 24 -13 27 -13 37 -9 60
-19 60 -26 0 -4 9 -6 20 -4 11 2 20 0 20 -4 0 -4 19 -14 43 -21 23 -8 44 -17
47 -20 8 -8 74 -32 93 -33 9 -1 17 -5 17 -8 0 -4 10 -11 23 -14 25 -8 84 -32
109 -46 10 -5 25 -9 33 -9 8 0 15 -5 15 -10 0 -6 3 -9 8 -8 4 1 21 -3 37 -8
17 -6 32 -11 35 -10 3 0 16 -7 29 -16 13 -9 30 -14 39 -11 10 4 13 2 8 -5 -5
-8 0 -12 13 -12 11 0 23 -4 26 -10 3 -5 15 -10 26 -10 10 0 19 -5 19 -11 0 -5
5 -7 10 -4 6 4 22 -1 35 -9 14 -9 25 -14 25 -10 0 3 11 -1 25 -10 13 -9 33
-16 43 -16 11 0 25 -7 32 -15 7 -9 15 -13 18 -10 3 3 15 -1 26 -8 12 -8 29
-13 38 -11 10 1 16 -3 15 -9 -1 -7 4 -11 11 -9 7 1 20 -5 28 -13 9 -8 19 -13
24 -10 5 3 25 -4 44 -15 20 -11 36 -17 36 -15 0 3 15 -2 33 -12 17 -9 37 -18
44 -19 7 -1 27 -9 44 -18 18 -9 36 -16 40 -16 5 0 33 -11 63 -25 30 -14 58
-25 63 -25 5 0 26 -10 48 -21 22 -12 41 -21 42 -21 6 3 94 -31 125 -48 10 -6
25 -10 33 -10 8 0 15 -5 15 -12 0 -6 3 -9 6 -5 7 7 65 -12 84 -29 8 -7 20 -13
25 -15 15 -3 38 -10 63 -20 66 -27 78 -32 94 -40 10 -5 25 -9 33 -9 8 0 15 -4
15 -9 0 -8 56 -25 73 -22 4 0 7 -4 7 -10 0 -5 4 -7 10 -4 5 3 10 1 10 -5 0 -6
4 -9 9 -5 5 3 12 1 16 -5 4 -6 11 -8 16 -5 5 4 9 1 9 -4 0 -6 11 -11 25 -11
14 0 25 -5 25 -11 0 -5 4 -8 9 -4 5 3 12 1 16 -5 4 -6 11 -8 16 -5 5 4 9 1 9
-4 0 -6 3 -10 8 -9 4 1 17 -3 30 -10 12 -7 22 -10 22 -7 0 3 22 -6 49 -19 27
-14 51 -22 55 -19 3 4 6 1 6 -5 0 -7 3 -11 8 -10 4 1 21 -4 37 -11 17 -7 37
-14 45 -16 8 -2 29 -10 45 -19 32 -16 83 -37 100 -42 6 -1 28 -10 50 -20 22
-10 47 -19 55 -20 8 -2 16 -7 18 -13 2 -5 10 -7 19 -4 10 4 14 2 10 -4 -4 -6
1 -10 11 -10 9 0 33 -6 52 -15 37 -16 65 -26 78 -29 4 -1 16 -8 27 -15 11 -8
27 -14 37 -14 10 0 18 -4 18 -8 0 -4 10 -9 22 -9 13 -1 24 -7 26 -13 2 -5 8
-8 13 -4 5 3 9 1 9 -5 0 -6 7 -8 15 -5 8 4 15 1 15 -5 0 -6 6 -11 13 -11 8 0
62 -20 120 -44 59 -24 107 -41 107 -38 0 4 4 1 9 -6 4 -7 14 -15 22 -16 13 -3
49 -16 89 -33 8 -3 17 -7 20 -8 3 -1 22 -9 44 -18 21 -9 45 -17 52 -17 8 0 14
-4 14 -10 0 -5 6 -10 14 -10 7 0 31 -8 52 -17 22 -9 45 -18 53 -19 8 -2 17 -6
20 -11 3 -4 15 -10 26 -11 11 -2 23 -8 26 -14 3 -5 9 -9 13 -8 10 3 40 -7 100
-33 22 -10 50 -20 63 -23 13 -4 26 -10 29 -15 3 -5 14 -9 25 -9 10 0 19 -3 19
-8 0 -6 69 -32 87 -32 5 0 8 457 8 1015 l0 1014 -70 -5 c-38 -3 -72 -8 -74
-10 -2 -2 -10 1 -18 7 -10 9 -13 8 -13 0 0 -7 -4 -9 -10 -6 -5 3 -19 8 -30 11
-11 2 -28 6 -38 8 -52 12 -102 30 -102 38 0 4 -9 8 -20 8 -11 0 -20 3 -20 8 0
4 -13 13 -30 20 -27 13 -135 112 -170 157 -26 34 -80 147 -82 171 -1 13 -5 24
-9 24 -4 0 -7 12 -8 28 -1 53 -2 62 -9 58 -8 -5 -6 69 2 91 3 8 2 12 -3 8 -11
-6 -8 9 6 45 6 14 9 28 6 33 -2 4 1 7 7 7 6 0 9 4 5 9 -3 5 1 16 9 24 8 8 13
16 11 19 -2 2 16 30 41 62 25 32 48 56 50 53 3 -3 17 6 31 19 14 13 29 21 33
19 5 -3 10 -1 12 5 2 6 14 12 27 15 12 2 28 8 35 13 12 10 172 7 224 -4 18 -3
35 -10 38 -15 3 -5 16 -9 28 -9 13 0 29 -7 36 -15 7 -8 16 -12 21 -9 5 3 9 0
9 -5 0 -6 3 -10 8 -9 11 2 46 -14 54 -26 5 -7 8 -7 9 -1 6 42 2 2125 -3 2125
-5 0 -8 7 -8 15 0 9 -9 34 -20 55 -11 22 -18 40 -15 40 4 0 -1 10 -9 22 -9 12
-16 30 -16 40 0 10 -4 18 -10 18 -5 0 -10 11 -10 25 0 14 -4 25 -9 25 -9 0
-26 55 -19 64 2 3 -6 12 -17 20 -11 9 -16 16 -11 16 5 0 4 6 -1 13 -11 13 -27
67 -24 80 1 5 -3 6 -8 3 -5 -3 -12 6 -17 22 -10 35 -9 32 -22 65 -7 16 -12 33
-12 38 0 6 -4 8 -8 5 -4 -2 -8 4 -9 14 -1 10 -11 37 -22 61 -12 23 -21 49 -21
56 0 16 -21 55 -35 65 -5 4 -6 8 -2 8 4 0 2 10 -5 23 -7 12 -13 25 -14 30 -1
4 -3 10 -4 15 -1 4 -2 10 -1 15 0 4 -4 7 -9 7 -6 0 -10 7 -10 15 0 8 -4 23 -9
33 -5 9 -17 35 -26 57 -9 22 -21 51 -27 65 -6 14 -14 34 -19 45 -4 11 -18 43
-30 70 -12 28 -22 56 -22 63 0 6 -4 12 -9 12 -5 0 -6 5 -3 10 3 6 1 10 -6 10
-7 0 -9 3 -6 7 4 3 2 12 -3 19 -6 6 -9 18 -8 25 2 8 -3 13 -9 12 -7 -2 -12 0
-11 5 2 9 -10 48 -27 87 -13 29 -37 85 -40 95 -1 3 -8 19 -15 35 -7 17 -14 33
-14 37 -1 3 -4 10 -8 14 -5 4 -8 16 -8 26 0 10 -3 18 -8 18 -7 0 -32 63 -34
88 -1 6 -5 12 -10 12 -4 0 -8 7 -8 15 0 9 -7 27 -16 40 -9 14 -13 25 -10 25 4
0 0 10 -8 23 -8 12 -15 25 -15 30 0 4 -10 28 -21 54 -11 26 -23 57 -26 70 -8
31 -38 49 -56 33 -4 -2 -39 -10 -66 -14 -12 -1 -25 -5 -28 -9 -3 -3 -13 -3
-22 0 -11 5 -13 3 -7 -6 6 -10 3 -11 -12 -3 -11 6 -25 7 -33 2 -8 -5 -17 -7
-20 -5 -3 2 -33 7 -65 10 -33 4 -70 11 -82 16 -13 5 -23 6 -23 3 0 -4 -6 -1
-13 5 -8 6 -17 8 -20 4 -4 -3 -7 -1 -7 5 0 6 -13 13 -29 17 -15 3 -38 15 -49
25 -12 11 -24 20 -28 20 -4 0 -27 20 -52 45 -24 25 -41 45 -37 45 5 0 0 9 -10
20 -10 11 -14 20 -9 20 5 0 3 4 -3 8 -7 5 -14 20 -15 35 -1 15 -5 27 -9 27 -8
0 -4 90 5 115 28 76 58 125 104 172 29 29 57 51 62 48 4 -3 10 2 14 10 3 9 12
12 22 8 12 -4 15 -3 10 5 -5 8 2 12 19 12 14 0 24 3 22 8 -3 4 14 8 36 9 23 2
43 7 45 12 2 6 9 8 15 6 7 -3 18 -1 26 4 12 7 12 13 0 40 -8 17 -17 31 -21 31
-5 0 -8 7 -8 16 0 9 -6 30 -14 47 -22 50 -29 71 -28 80 1 4 -2 7 -7 7 -7 0
-16 20 -26 60 0 3 -11 27 -23 54 -12 27 -22 55 -22 62 0 8 -4 14 -8 14 -8 0
-34 72 -32 86 1 4 -2 10 -7 13 -10 7 -55 111 -56 129 0 6 -4 12 -9 12 -4 0 -8
6 -8 13 0 7 -9 31 -19 53 -11 22 -23 52 -26 67 -4 15 -12 27 -18 27 -6 0 -8 3
-4 6 3 4 -3 24 -13 45 -11 21 -20 45 -20 54 0 8 -5 15 -11 15 -6 0 -9 6 -6 14
3 8 -1 20 -8 26 -8 7 -12 16 -9 21 3 5 0 9 -6 9 -7 0 -10 7 -6 15 3 8 -2 21
-10 30 -9 8 -13 15 -10 15 4 0 -5 22 -18 49 -14 27 -22 51 -19 55 4 3 0 6 -7
6 -7 0 -10 3 -7 6 3 4 1 16 -5 28 -13 22 -15 28 -17 49 0 7 -17 20 -36 29 -19
8 -32 11 -29 6 4 -6 -2 -7 -16 -3 -25 8 -59 14 -110 21 -51 6 -64 9 -77 17 -8
5 -13 3 -13 -3 0 -6 -5 -8 -12 -3 -15 9 -32 12 -75 15 -18 0 -33 4 -33 7 0 4
-22 6 -50 6 -27 0 -50 3 -50 7 0 5 -5 8 -11 8 -5 0 -7 -5 -3 -11 4 -8 1 -8
-12 -1 -11 5 -27 8 -36 7 -10 -2 -20 0 -23 5 -2 4 -16 6 -30 5 -14 -2 -28 1
-31 7 -4 7 -9 6 -14 -2 -5 -8 -13 -9 -21 -4 -8 5 -30 9 -50 10 -19 0 -40 4
-47 7 -6 4 -13 3 -17 -3 -4 -6 -11 -8 -16 -5 -11 7 -104 16 -176 17 -29 0 -53
5 -53 10 0 7 -5 7 -12 2 -16 -11 -39 -11 -55 -1 -8 5 -13 3 -13 -4 0 -8 -5 -7
-17 2 -15 12 -16 12 -8 -1 7 -13 6 -13 -7 -2 -12 9 -18 10 -23 2 -5 -8 -11 -7
-22 1 -12 10 -16 10 -24 -2 -6 -10 -9 -11 -9 -1 0 10 -5 10 -21 1 -15 -8 -19
-8 -15 0 10 15 -17 14 -33 -1 -11 -10 -13 -10 -7 0 5 8 -1 12 -21 12 -16 0
-35 -6 -42 -12 -9 -8 -11 -9 -7 -1 4 8 -32 11 -139 11 -80 0 -147 -4 -150 -8
-5 -8 -36 -7 -53 4 -7 4 -12 2 -12 -6 0 -8 -3 -9 -8 -3 -8 11 -42 16 -42 6z
m113 -831 c4 0 6 4 3 8 -6 10 36 8 52 -2 7 -4 12 -3 12 1 0 11 92 9 109 -1 6
-4 11 -3 11 1 0 11 92 9 109 -1 6 -4 11 -3 11 1 0 10 92 9 108 -1 6 -3 12 -1
14 5 2 7 12 7 31 0 16 -6 26 -7 23 -2 -3 4 7 6 22 4 27 -4 121 -10 224 -15 36
-1 54 -6 50 -12 -3 -6 2 -5 11 3 13 10 17 10 17 1 0 -9 3 -10 13 -1 8 6 17 7
21 3 4 -4 26 -8 49 -9 89 -4 106 -6 103 -12 -2 -3 14 -6 37 -6 l41 0 32 -77
c17 -42 29 -79 26 -82 -3 -4 0 -6 6 -6 7 0 12 -9 12 -20 0 -11 5 -20 10 -20
17 0 11 -51 -11 -81 -11 -16 -18 -29 -15 -29 3 0 -3 -9 -14 -20 -11 -11 -20
-27 -20 -35 0 -8 -5 -15 -11 -15 -5 0 -8 -4 -4 -9 3 -5 -2 -17 -11 -25 -8 -9
-12 -16 -8 -16 3 0 1 -7 -6 -15 -7 -8 -9 -15 -5 -15 4 0 1 -7 -6 -17 -8 -9
-14 -23 -14 -32 0 -9 -4 -22 -8 -28 -8 -13 -17 -44 -21 -73 -1 -9 -5 -20 -9
-26 -3 -6 -8 -26 -9 -43 -1 -18 -6 -35 -10 -37 -5 -3 -4 -14 2 -24 7 -13 7
-21 0 -25 -12 -7 -12 -222 -1 -230 4 -2 7 -14 6 -27 -1 -13 2 -31 7 -40 6 -13
5 -18 -4 -18 -9 0 -10 -3 -2 -8 6 -4 12 -15 12 -24 4 -41 6 -48 13 -48 4 0 6
-8 5 -17 -2 -9 3 -28 10 -42 7 -13 11 -28 8 -33 -3 -4 0 -8 5 -8 6 0 11 -11
11 -25 0 -14 4 -25 9 -25 5 0 11 -13 14 -29 3 -16 12 -35 19 -43 7 -7 14 -20
16 -28 2 -8 8 -16 13 -18 5 -2 9 -12 9 -23 0 -10 5 -19 10 -19 6 0 10 -7 10
-15 0 -8 5 -15 10 -15 6 0 10 -7 10 -15 0 -8 5 -15 10 -15 6 0 10 -5 10 -11 0
-5 13 -24 30 -42 16 -18 30 -38 30 -44 0 -7 3 -13 8 -13 12 0 72 -57 72 -69 0
-6 4 -11 9 -11 5 0 33 -22 62 -50 29 -27 58 -50 64 -50 6 0 17 -9 25 -20 8
-11 19 -20 25 -20 6 0 26 -11 45 -25 18 -13 37 -22 41 -19 5 3 9 2 9 -3 0 -4
15 -14 33 -22 17 -8 50 -22 71 -32 22 -11 48 -19 57 -19 10 0 21 -4 24 -10 3
-5 17 -10 31 -10 13 0 24 -5 24 -10 0 -6 6 -10 13 -9 33 4 68 -2 62 -11 -3 -5
-2 -10 3 -10 9 0 27 -47 24 -62 -1 -5 2 -8 8 -8 5 0 10 -7 10 -15 0 -9 7 -27
16 -40 9 -14 13 -25 10 -25 -4 0 1 -15 11 -32 9 -18 18 -35 18 -38 0 -3 6 -15
13 -27 7 -13 10 -23 6 -23 -3 0 -1 -7 6 -15 7 -8 9 -15 4 -15 -5 0 -3 -4 4 -9
7 -4 15 -14 16 -22 2 -8 8 -27 14 -42 39 -94 56 -133 65 -144 5 -7 6 -17 2
-23 -3 -5 -1 -10 4 -10 6 0 11 -9 11 -21 0 -11 5 -17 10 -14 6 4 10 3 8 -2 -4
-16 14 -73 23 -73 6 0 7 -4 4 -10 -3 -5 -1 -10 4 -10 6 0 10 -3 10 -7 -4 -18
14 -72 22 -68 4 3 6 -3 4 -14 -2 -11 3 -22 11 -25 9 -3 12 -10 9 -16 -8 -13
-42 -13 -47 0 -1 5 -12 11 -23 13 -11 2 -38 12 -60 22 -22 9 -44 18 -50 19 -5
1 -20 8 -32 14 -13 7 -23 9 -23 5 0 -4 -4 -2 -8 5 -5 7 -19 14 -31 17 -13 2
-34 11 -47 20 -13 8 -24 13 -24 9 0 -3 -11 1 -25 10 -29 19 -38 20 -30 4 4 -7
-1 -4 -9 6 -9 11 -16 17 -16 13 0 -4 -10 -1 -22 7 -13 8 -26 16 -30 16 -29 6
-48 13 -48 20 0 4 -8 7 -17 7 -10 0 -40 10 -68 22 -27 13 -56 24 -62 24 -7 0
-13 4 -13 9 0 4 -8 8 -17 8 -10 1 -48 15 -85 33 -36 18 -64 29 -62 25 3 -4 -2
-5 -10 -2 -9 3 -16 9 -16 13 0 4 -7 8 -15 9 -8 1 -22 3 -30 4 -8 1 -15 5 -15
9 0 6 -40 21 -63 23 -4 1 -11 7 -16 14 -5 8 -11 13 -15 13 -22 -2 -65 13 -59
22 3 5 1 7 -4 4 -6 -4 -27 0 -47 8 -20 8 -39 16 -43 16 -5 1 -17 6 -28 12 -11
6 -23 10 -27 9 -5 -1 -8 3 -8 9 0 5 -4 8 -8 5 -5 -3 -25 3 -44 14 -20 10 -39
16 -42 13 -3 -4 -6 -1 -6 6 0 7 -4 10 -9 6 -5 -3 -12 -1 -16 5 -3 5 -15 10
-26 10 -10 0 -19 4 -19 8 0 4 -10 8 -22 9 -11 1 -25 8 -29 15 -5 7 -9 10 -9 5
0 -4 -17 1 -39 12 -21 11 -41 17 -45 14 -3 -4 -6 -1 -6 6 0 7 -4 10 -9 6 -5
-3 -12 -1 -16 5 -4 6 -11 8 -16 5 -5 -4 -9 -1 -9 4 0 6 -11 11 -25 11 -14 0
-25 5 -25 10 0 6 -6 10 -14 10 -13 0 -61 19 -153 61 -24 10 -47 19 -53 19 -6
0 -18 5 -28 10 -29 17 -164 70 -178 70 -8 0 -14 5 -14 10 0 6 -9 10 -19 10
-11 0 -23 5 -26 11 -4 6 -13 8 -21 5 -8 -3 -14 -2 -14 3 0 8 -32 22 -56 25 -6
1 -22 9 -37 19 -15 10 -27 15 -27 11 0 -4 -7 -1 -15 6 -8 7 -15 10 -15 6 0 -3
-23 5 -50 19 -28 14 -55 23 -60 20 -6 -4 -13 0 -16 8 -3 8 -13 14 -22 13 -9
-2 -23 3 -30 11 -8 7 -18 11 -23 8 -5 -4 -9 -1 -9 6 0 7 -3 9 -6 6 -4 -3 -16
-1 -28 5 -21 12 -27 14 -47 17 -5 0 -7 6 -3 13 4 7 3 8 -4 4 -7 -4 -33 3 -59
14 -27 12 -57 23 -67 26 -11 2 -23 9 -28 16 -4 7 -8 10 -8 5 0 -4 -13 -1 -29
7 -16 9 -31 12 -35 9 -3 -4 -6 -1 -6 6 0 6 -6 11 -12 9 -7 -1 -27 6 -45 15
-18 9 -39 17 -48 17 -8 0 -15 3 -15 8 0 4 -27 16 -60 26 -33 11 -60 24 -60 29
0 5 -7 7 -15 3 -8 -3 -15 -1 -15 4 0 6 -3 9 -7 8 -15 -4 -53 14 -48 22 3 4 -4
6 -15 3 -11 -3 -20 -1 -20 4 0 5 -10 9 -22 10 -11 1 -25 8 -29 15 -5 7 -9 10
-9 6 0 -4 -17 0 -37 9 -21 8 -49 20 -63 26 -14 6 -27 11 -30 12 -3 1 -22 9
-44 18 -21 9 -45 17 -52 17 -8 0 -14 4 -14 9 0 5 -16 12 -35 15 -22 5 -33 11
-29 18 4 6 3 8 -3 5 -5 -3 -23 1 -39 9 -16 9 -31 15 -34 15 -17 -1 -50 13 -50
21 0 5 -4 7 -8 4 -4 -2 -27 4 -51 15 -24 10 -48 19 -54 19 -6 0 -19 8 -30 18
-15 12 -19 13 -13 2 6 -12 5 -12 -6 1 -7 9 -18 14 -25 12 -6 -2 -14 1 -18 6
-3 6 -15 11 -26 11 -10 0 -19 4 -19 9 0 8 -56 25 -72 22 -5 0 -8 4 -8 10 0 5
-4 7 -10 4 -5 -3 -10 -1 -10 4 0 6 -3 10 -7 9 -5 -1 -21 4 -36 10 -16 7 -33
12 -38 12 -5 0 -9 4 -9 8 0 4 -8 8 -17 9 -10 1 -40 12 -68 24 -27 13 -55 24
-62 25 -7 1 -27 9 -44 18 -18 9 -38 16 -46 16 -7 0 -13 5 -13 10 0 6 -3 9 -7
9 -5 -1 -11 0 -15 1 -5 1 -11 3 -15 4 -5 2 -19 7 -33 13 -32 14 -64 25 -69 23
-2 -1 -7 3 -11 10 -4 6 -17 12 -28 13 -12 1 -22 5 -22 9 0 4 -7 8 -15 8 -8 0
-42 13 -75 29 -33 15 -60 23 -60 17 0 -7 -3 -7 -8 -1 -4 6 -18 15 -32 21 -56
26 -103 46 -114 49 -38 10 -56 18 -56 27 0 5 -4 7 -9 4 -4 -3 -16 1 -27 8 -10
8 -24 12 -31 9 -7 -3 -13 1 -13 8 0 7 -2 10 -5 7 -3 -3 -40 9 -82 28 -42 18
-80 31 -84 29 -4 -3 -9 1 -12 8 -3 9 22 27 71 52 43 22 84 45 92 51 8 7 20 13
25 15 23 4 41 14 53 28 8 9 11 10 7 3 -4 -7 8 -5 28 7 19 11 38 17 41 14 3 -4
6 -2 6 4 0 10 32 23 54 22 5 -1 12 4 16 11 4 6 13 12 21 13 8 2 19 5 24 9 16
10 208 89 225 93 8 2 29 9 45 16 35 14 50 19 60 19 3 0 19 7 35 15 16 8 31 15
32 15 3 -1 16 2 53 15 11 3 22 6 25 7 3 0 14 5 25 11 11 6 26 12 33 13 8 1 21
6 30 10 9 4 23 9 30 11 22 6 47 11 55 12 5 1 5 5 2 11 -3 5 0 7 7 5 8 -3 32 1
55 9 23 8 44 12 47 9 3 -4 6 -1 6 6 0 7 3 10 8 8 4 -3 18 0 32 6 14 5 36 11
50 12 14 1 27 4 30 5 3 2 10 4 15 5 6 1 17 5 25 8 8 4 26 9 40 11 14 3 25 5
25 6 0 3 41 11 58 11 9 0 17 4 17 7 0 4 14 9 31 10 17 1 40 7 51 13 16 9 19 8
12 -3 -6 -10 -5 -11 8 -1 8 7 18 10 21 6 4 -3 7 -2 7 3 0 5 8 10 18 11 44 2
72 8 72 14 0 4 8 6 18 4 9 -1 21 0 27 3 5 3 18 7 30 8 48 6 90 13 90 14 0 4
43 11 73 12 17 1 32 5 32 9 0 4 8 6 17 5 9 -2 42 2 72 8 31 7 68 11 84 11 15
-1 27 2 27 6 0 3 10 6 23 5 12 -1 38 1 57 5 38 8 164 22 193 21 9 -1 17 2 17
6 0 4 26 7 58 6 31 0 63 4 70 9 8 6 12 5 12 -3 0 -10 3 -10 14 -1 10 9 16 9
21 1 4 -7 11 -7 18 -2 11 9 53 12 179 16 31 1 60 5 64 9 4 4 12 3 18 -3 5 -5
14 -10 19 -10z m-2973 -1656 c36 -15 79 -33 95 -40 34 -14 87 -36 95 -39 3 -1
16 -6 30 -12 14 -6 42 -16 63 -24 20 -7 37 -17 37 -21 0 -4 3 -7 8 -7 21 4 32
-2 26 -13 -5 -10 -4 -10 5 -2 9 9 23 6 54 -9 73 -36 76 -37 92 -37 8 0 15 -5
15 -11 0 -6 7 -9 15 -5 8 3 15 1 15 -5 0 -6 5 -7 10 -4 6 3 10 1 10 -6 0 -7 3
-10 6 -6 3 3 35 -8 71 -24 36 -16 68 -27 71 -25 2 3 11 -2 19 -10 8 -8 19 -12
24 -9 5 4 9 1 9 -4 0 -6 9 -11 19 -11 11 0 23 -5 26 -10 4 -6 11 -8 16 -5 5 4
9 1 9 -5 0 -6 3 -9 8 -7 4 3 34 -8 67 -24 33 -16 65 -29 71 -29 5 0 28 -8 50
-19 21 -10 57 -25 79 -32 22 -8 43 -18 46 -22 3 -5 9 -8 13 -8 25 4 36 0 30
-11 -5 -7 -2 -9 8 -5 9 3 25 -1 36 -8 10 -8 22 -11 26 -8 3 3 6 1 6 -6 0 -7 6
-11 14 -8 8 3 16 2 18 -3 2 -5 13 -11 25 -13 11 -1 28 -9 37 -16 9 -8 19 -11
22 -8 3 3 21 -3 40 -14 19 -10 41 -19 49 -19 8 0 15 -5 15 -12 0 -6 3 -8 6 -5
4 3 16 1 28 -5 11 -7 24 -13 29 -14 4 -1 9 -3 12 -4 6 -3 12 -5 43 -15 12 -4
22 -10 22 -14 0 -4 12 -8 28 -9 15 -1 29 -7 30 -12 2 -6 11 -10 21 -10 9 0 22
-5 29 -12 7 -7 12 -9 12 -5 0 3 20 -4 45 -18 25 -13 42 -19 39 -13 -4 5 5 3
18 -6 14 -9 28 -13 31 -9 4 3 7 1 7 -5 0 -7 9 -12 20 -12 11 0 20 -5 20 -11 0
-5 4 -8 9 -4 5 3 16 -1 24 -9 8 -8 17 -13 20 -10 3 3 30 -6 61 -20 31 -14 63
-26 71 -26 8 0 15 -4 15 -10 0 -5 6 -10 12 -10 20 0 148 -52 148 -61 0 -4 10
-5 22 -1 14 3 19 2 14 -6 -5 -8 0 -12 14 -12 11 0 28 -4 38 -9 35 -19 112 -51
151 -63 23 -7 41 -16 41 -20 0 -5 8 -8 18 -8 10 0 22 -3 26 -7 4 -5 11 -8 14
-8 4 -1 17 -6 28 -13 12 -6 24 -8 28 -5 3 3 6 1 6 -5 0 -7 3 -11 8 -10 4 1 23
-4 42 -11 19 -8 37 -15 40 -15 34 -10 78 -31 75 -36 -2 -3 8 -7 23 -8 14 -1
31 -7 36 -12 6 -6 21 -10 34 -10 13 0 20 -4 17 -10 -5 -8 15 -13 41 -9 4 0 10
-3 13 -8 3 -5 38 -22 76 -37 39 -15 84 -33 100 -41 27 -11 162 -66 210 -85 11
-4 38 -16 60 -26 22 -9 46 -17 53 -17 6 0 12 -4 12 -9 0 -4 3 -7 8 -6 8 1 51
-15 96 -38 16 -8 37 -14 48 -14 10 0 18 -4 18 -10 0 -5 6 -10 14 -10 7 0 31
-8 52 -17 22 -9 41 -17 44 -18 3 0 15 -6 26 -13 12 -6 24 -8 28 -5 3 3 6 0 6
-7 0 -7 3 -11 6 -7 4 3 24 -3 45 -13 21 -11 45 -20 54 -20 8 0 15 -4 15 -10 0
-5 8 -10 18 -10 10 0 22 -3 26 -7 4 -5 11 -8 14 -8 18 -2 82 -27 82 -34 0 -4
10 -7 22 -8 11 -1 24 -6 27 -10 3 -4 14 -9 25 -11 10 -2 42 -14 70 -27 55 -25
86 -35 100 -34 5 0 12 -3 15 -9 3 -5 40 -22 81 -38 41 -16 77 -32 78 -36 2 -5
8 -6 13 -3 4 3 19 -1 32 -10 13 -8 27 -12 30 -8 4 3 7 0 7 -7 0 -7 3 -10 6 -7
4 3 16 1 28 -5 11 -7 27 -13 35 -14 8 -2 18 -9 22 -16 5 -7 9 -10 9 -6 0 10
60 -12 60 -23 0 -4 6 -6 14 -3 8 3 17 1 21 -5 3 -6 15 -11 26 -11 10 0 19 -4
19 -9 0 -6 9 -8 20 -6 13 3 20 -2 20 -12 0 -9 6 -13 14 -10 8 3 34 -4 58 -16
24 -12 52 -24 63 -25 11 -2 22 -8 23 -13 2 -5 9 -9 17 -9 7 0 30 -8 51 -17 22
-9 41 -18 44 -18 3 -1 21 -8 40 -16 19 -7 38 -12 43 -11 4 1 7 -3 7 -8 0 -6
12 -10 26 -10 14 0 23 -4 19 -10 -3 -6 3 -10 15 -10 11 0 28 -4 38 -10 20 -12
63 -27 76 -28 16 -1 24 -25 16 -48 -5 -12 -6 -24 -3 -27 8 -9 9 -187 1 -187
-4 0 -5 -6 -3 -12 9 -23 11 -188 3 -188 -4 0 -4 -10 1 -22 5 -13 5 -32 1 -44
-5 -11 -5 -27 0 -34 5 -7 5 -23 0 -35 -5 -12 -5 -27 -1 -34 19 -30 -1 -58 -62
-87 -61 -29 -73 -36 -102 -62 -8 -7 -15 -10 -15 -5 0 4 -5 0 -11 -9 -5 -10
-14 -18 -19 -18 -12 0 -37 -20 -104 -82 -28 -27 -54 -48 -58 -48 -4 0 -8 -4
-8 -10 0 -5 -14 -23 -30 -38 -16 -16 -30 -34 -30 -41 0 -6 -4 -11 -10 -11 -5
0 -10 -7 -10 -16 0 -8 -4 -12 -10 -9 -5 3 -10 0 -10 -7 0 -7 -11 -26 -25 -41
-14 -15 -23 -27 -19 -27 4 0 0 -8 -9 -18 -10 -10 -14 -22 -10 -25 3 -4 1 -7
-6 -7 -7 0 -10 -4 -6 -9 3 -6 -3 -14 -12 -20 -10 -6 -14 -11 -9 -11 5 0 2 -8
-7 -17 -8 -10 -16 -22 -17 -28 -3 -28 -13 -55 -21 -55 -5 0 -6 -7 -3 -15 4 -8
1 -15 -6 -15 -6 0 -8 -5 -5 -10 3 -5 1 -10 -5 -10 -6 0 -8 -4 -5 -10 3 -5 1
-20 -6 -32 -6 -12 -13 -33 -15 -47 -1 -14 -6 -37 -9 -51 -15 -57 -22 -100 -16
-100 3 0 -1 -5 -9 -10 -12 -7 -12 -10 -1 -10 9 0 11 -6 6 -17 -9 -21 -14 -223
-6 -223 3 0 6 -19 7 -43 1 -37 10 -102 14 -102 1 0 3 -11 5 -25 7 -53 27 -126
38 -145 7 -11 12 -29 12 -40 0 -11 6 -26 13 -34 7 -7 11 -19 8 -27 -3 -7 -2
-14 2 -16 10 -4 58 -110 54 -121 -1 -5 2 -6 8 -2 9 6 14 -7 11 -27 0 -5 3 -8
9 -8 5 0 10 -6 10 -12 0 -7 18 -37 40 -66 22 -29 41 -58 43 -64 5 -23 220
-248 237 -248 6 0 10 -4 10 -8 0 -5 11 -15 25 -22 14 -7 25 -20 25 -27 0 -8 4
-12 9 -8 5 3 16 -1 24 -9 8 -8 17 -12 21 -9 3 4 6 2 6 -4 0 -6 16 -18 35 -27
19 -9 35 -22 36 -29 4 -59 0 -152 -7 -151 -21 1 -64 17 -64 23 0 4 -12 8 -27
9 -16 1 -29 7 -31 12 -2 6 -12 10 -22 10 -10 0 -21 4 -24 9 -3 4 -19 11 -36
15 -17 3 -29 9 -26 14 2 4 -5 8 -17 8 -12 0 -40 8 -62 18 -22 10 -49 22 -60
26 -11 5 -40 17 -65 28 -25 11 -63 26 -85 33 -22 8 -55 22 -73 31 -18 10 -37
16 -43 13 -5 -4 -9 -1 -9 4 0 6 -9 11 -20 11 -11 0 -20 5 -20 10 0 6 -6 10
-12 8 -7 -1 -27 5 -44 15 -17 9 -34 13 -38 10 -3 -4 -6 -1 -6 5 0 7 -3 11 -7
10 -9 -1 -30 6 -80 28 -17 8 -36 14 -42 14 -6 0 -11 4 -11 10 0 5 -6 7 -14 4
-8 -3 -17 -1 -21 5 -3 6 -15 11 -26 11 -10 0 -19 5 -19 10 0 6 -8 10 -18 10
-10 0 -23 5 -30 12 -7 7 -12 9 -12 5 0 -4 -10 -2 -22 5 -13 7 -26 11 -30 10
-5 -1 -8 3 -8 9 0 5 -5 7 -10 4 -6 -3 -10 -1 -10 5 0 6 -3 9 -7 7 -5 -3 -19 0
-33 6 -14 5 -31 11 -39 13 -8 1 -18 8 -22 16 -4 7 -11 9 -15 5 -4 -4 -18 0
-31 8 -13 9 -23 12 -23 9 0 -4 -8 0 -17 8 -10 8 -39 21 -65 29 -27 7 -48 17
-48 22 0 5 -6 7 -14 4 -8 -3 -20 0 -26 8 -6 8 -18 11 -26 8 -8 -3 -14 -1 -14
5 0 10 -32 23 -65 26 -11 1 -19 7 -18 13 2 7 -6 10 -17 8 -11 -2 -20 0 -20 6
0 5 -9 9 -20 9 -11 0 -20 4 -20 8 0 4 -10 9 -22 9 -13 1 -24 7 -26 13 -2 5 -7
8 -12 5 -4 -2 -20 2 -36 10 -26 12 -82 36 -94 40 -3 1 -21 8 -40 17 -19 8 -53
21 -75 28 -22 7 -50 19 -61 27 -12 8 -35 16 -50 19 -16 3 -30 9 -32 15 -2 5
-12 9 -23 9 -10 0 -19 5 -19 11 0 5 -4 8 -9 5 -4 -3 -27 3 -49 14 -23 11 -48
20 -57 20 -10 0 -13 5 -9 12 4 6 3 8 -3 5 -6 -4 -28 2 -49 12 -21 11 -42 17
-46 14 -5 -2 -8 1 -8 7 0 6 -4 8 -10 5 -5 -3 -10 -1 -10 6 0 7 -3 10 -6 7 -3
-4 -24 2 -47 12 -23 10 -44 17 -48 14 -4 -2 -9 3 -13 11 -3 8 -12 12 -21 9 -8
-3 -15 -1 -15 5 0 6 -11 11 -25 11 -14 0 -25 5 -25 10 0 6 -9 10 -19 10 -11 0
-23 5 -26 10 -4 6 -10 8 -14 6 -4 -3 -22 4 -40 15 -18 11 -36 17 -42 14 -5 -4
-9 -1 -9 4 0 6 -7 11 -15 11 -8 0 -25 5 -38 12 -47 24 -57 28 -72 28 -8 0 -15
4 -15 10 0 5 -3 9 -7 8 -10 -2 -41 9 -76 28 -16 7 -37 14 -48 14 -10 0 -19 4
-19 9 0 8 -56 25 -72 22 -5 0 -8 3 -8 8 0 9 -57 27 -73 23 -5 -2 -6 1 -3 6 3
5 -12 14 -32 21 -20 7 -52 20 -71 28 -18 8 -39 16 -45 17 -29 5 -56 18 -56 27
0 5 -3 8 -7 7 -16 -4 -73 14 -73 23 0 5 -7 9 -15 9 -8 0 -39 11 -69 24 -30 13
-57 22 -60 18 -3 -3 -6 -1 -6 4 0 5 -20 16 -45 23 -25 7 -45 18 -45 24 0 6 -3
8 -6 4 -6 -5 -103 31 -155 59 -14 7 -29 11 -33 7 -3 -3 -6 -1 -6 6 0 6 -6 11
-12 9 -7 -1 -23 3 -36 10 -12 7 -28 10 -34 6 -7 -4 -8 -3 -4 4 5 8 0 12 -13
12 -12 0 -21 5 -21 12 0 6 -3 9 -6 5 -4 -3 -19 0 -34 8 -15 8 -30 11 -33 8 -4
-3 -9 1 -12 9 -4 9 -16 14 -31 12 -13 -1 -24 1 -24 6 0 8 -86 43 -107 43 -7 0
-10 4 -7 9 3 4 -3 8 -14 8 -10 0 -42 11 -70 25 -29 14 -59 25 -67 25 -8 0 -15
5 -15 11 0 6 -9 9 -20 6 -13 -3 -18 -1 -13 6 4 6 0 8 -10 4 -10 -3 -17 -3 -17
1 0 5 -17 14 -37 21 -21 8 -56 22 -77 32 -22 11 -44 19 -49 19 -5 0 -31 11
-58 25 -27 13 -49 22 -49 20 0 -2 -23 7 -52 20 -28 13 -55 22 -60 19 -4 -3 -8
-1 -8 4 0 9 -47 27 -62 24 -5 -1 -8 3 -8 8 0 6 -9 10 -20 10 -11 0 -20 5 -20
11 0 5 -4 8 -9 4 -6 -3 -25 3 -44 14 -19 11 -38 17 -41 14 -3 -4 -6 -1 -6 5 0
7 -3 11 -7 10 -15 -3 -63 14 -63 23 0 5 -7 6 -15 3 -8 -4 -15 -1 -15 7 0 7 -3
10 -6 6 -4 -3 -24 3 -45 14 -22 11 -39 17 -39 13 0 -3 -11 1 -25 10 -14 9 -30
14 -35 11 -6 -3 -10 1 -10 9 0 9 -8 15 -17 14 -10 -1 -42 9 -70 21 l-53 24 0
1573 c0 866 3 1574 8 1574 4 0 36 -12 72 -26z"/>
<path d="M3524 7028 c-3 -5 -12 -7 -20 -4 -8 3 -14 1 -14 -5 0 -6 -4 -8 -9 -5
-15 10 -130 -34 -158 -61 -7 -6 -23 -20 -35 -30 -28 -22 -64 -74 -60 -87 2 -5
-2 -12 -8 -16 -6 -4 -12 -24 -15 -46 -2 -21 -5 -39 -5 -39 -1 0 -3 -15 -4 -32
-1 -18 3 -33 9 -33 5 0 3 -5 -5 -10 -12 -8 -12 -10 -1 -10 8 0 12 -2 9 -5 -6
-6 6 -68 21 -106 5 -13 10 -28 11 -34 5 -17 82 -138 119 -185 19 -25 63 -73
97 -106 35 -34 61 -64 59 -68 -3 -3 -2 -4 1 -1 4 2 25 -10 48 -28 23 -17 46
-35 51 -40 6 -4 20 -16 33 -26 12 -10 36 -24 52 -31 17 -7 30 -17 30 -22 0 -5
4 -7 9 -4 5 4 11 2 13 -2 4 -11 168 -92 185 -92 7 0 13 -5 13 -12 0 -6 3 -8 7
-5 3 4 12 2 20 -4 7 -6 13 -8 13 -5 0 4 10 0 22 -8 25 -18 42 -21 33 -7 -3 5
8 3 25 -5 16 -9 35 -12 41 -8 8 4 9 3 5 -4 -5 -8 1 -12 16 -11 13 0 39 -2 58
-6 61 -11 230 -12 230 -1 0 6 5 5 12 -2 7 -7 16 -8 22 -3 6 5 20 11 31 13 11
1 26 8 33 15 7 7 19 10 27 7 8 -4 15 -1 15 5 0 6 6 11 13 11 6 0 30 17 52 38
46 44 78 82 68 82 -4 0 -2 5 5 12 7 7 12 23 12 36 0 13 4 21 8 18 10 -6 8 162
-2 189 -4 11 -12 30 -18 42 -6 11 -7 26 -4 32 4 6 2 11 -3 11 -6 0 -11 7 -11
15 0 8 -5 15 -12 15 -6 0 -8 3 -5 7 4 3 0 15 -10 25 -9 10 -13 18 -9 18 4 0
-2 10 -14 22 -11 12 -20 27 -20 34 0 6 -7 15 -16 18 -8 3 -12 10 -9 16 3 5 1
10 -5 10 -6 0 -16 11 -22 25 -6 14 -18 25 -26 25 -9 0 -13 3 -9 6 6 6 -40 55
-88 92 -16 13 -30 27 -30 30 0 4 -28 28 -62 54 -35 26 -63 44 -63 41 0 -3 -8
3 -17 14 -16 18 -44 33 -59 32 -3 0 -14 9 -24 21 -10 12 -22 22 -27 22 -24 3
-43 11 -43 19 0 5 -9 9 -19 9 -11 0 -23 5 -26 10 -4 6 -10 8 -15 5 -4 -3 -13
2 -20 10 -7 8 -21 15 -31 15 -11 0 -19 4 -19 10 0 5 -7 7 -15 4 -8 -4 -15 -1
-15 7 0 7 -3 10 -6 6 -4 -3 -20 1 -36 9 -17 9 -32 13 -36 10 -3 -3 -10 -1 -17
4 -6 5 -26 10 -43 12 -18 1 -32 5 -32 8 0 4 -12 7 -27 8 -68 3 -133 11 -142
17 -6 3 -11 2 -11 -3 0 -6 -14 -7 -35 -2 -21 5 -38 4 -41 -2z"/>
<path d="M6239 5866 c-2 -3 -18 -7 -34 -10 -17 -2 -32 -5 -35 -6 -3 -1 -9 -3
-15 -4 -41 -7 -94 -29 -112 -45 -11 -11 -22 -19 -24 -17 -2 1 -14 -8 -26 -21
-12 -13 -20 -23 -16 -23 3 0 -3 -8 -14 -17 -11 -10 -19 -26 -17 -36 1 -9 -2
-15 -7 -11 -8 4 -11 -9 -8 -32 0 -4 -5 -11 -13 -15 -10 -7 -10 -9 0 -9 8 0 10
-5 5 -12 -11 -18 -11 -60 0 -82 5 -10 5 -16 0 -13 -5 3 -5 -14 1 -38 6 -24 13
-42 18 -39 4 2 6 -4 6 -13 -2 -23 33 -103 45 -103 4 0 5 -4 2 -10 -3 -5 -1
-10 4 -10 6 0 11 -6 11 -12 0 -7 10 -25 23 -40 53 -62 77 -93 77 -100 0 -5 7
-8 16 -8 8 0 12 -4 9 -10 -3 -5 -1 -10 5 -10 6 0 33 -22 61 -50 28 -27 58 -50
66 -50 9 0 13 -3 10 -7 -7 -6 41 -40 96 -66 15 -7 24 -16 20 -20 -3 -4 4 -7
16 -7 12 0 19 -4 16 -10 -3 -6 1 -7 9 -4 10 4 16 1 16 -7 0 -7 3 -9 6 -6 4 4
23 -2 43 -12 57 -29 86 -42 101 -45 8 -2 22 -6 30 -9 31 -11 76 -20 108 -21
17 -1 32 -4 32 -7 0 -8 177 -6 185 3 4 4 13 4 21 1 8 -3 14 -1 14 5 0 6 9 8
20 5 12 -3 20 0 20 8 0 7 3 10 6 6 12 -11 124 72 124 92 0 5 8 15 18 20 9 6
13 11 8 11 -5 0 -3 7 4 15 7 8 10 22 6 30 -3 8 0 15 7 15 13 0 18 123 5 135
-4 4 -4 14 -1 23 4 8 2 13 -3 10 -5 -3 -10 6 -10 20 -2 38 -7 55 -22 70 -7 8
-10 18 -7 23 4 5 2 9 -2 9 -5 0 -16 18 -26 40 -9 23 -24 43 -32 46 -8 4 -13
10 -10 14 3 4 -6 19 -20 31 -13 13 -25 28 -25 32 0 20 -197 189 -260 223 -19
10 -37 22 -40 25 -8 10 -88 49 -100 49 -6 0 -18 7 -27 15 -8 8 -19 13 -24 10
-5 -4 -9 -1 -9 4 0 6 -8 11 -18 11 -10 0 -22 3 -26 8 -4 4 -12 8 -17 8 -5 1
-11 3 -14 4 -3 1 -8 3 -12 4 -5 1 -24 6 -43 11 -19 4 -44 9 -55 9 -11 1 -25 5
-32 9 -7 4 -23 6 -37 3 -14 -3 -28 0 -31 5 -4 5 -13 5 -24 -1 -11 -6 -21 -6
-28 1 -5 5 -11 7 -14 5z"/>
<path d="M4790 5273 c0 -5 -30 -9 -68 -10 -97 -3 -136 -7 -142 -15 -3 -4 -15
-9 -25 -11 -46 -9 -125 -46 -125 -59 0 -4 -7 -8 -15 -8 -9 0 -18 -7 -21 -15
-3 -8 -14 -17 -25 -20 -11 -4 -17 -11 -14 -16 4 -5 2 -9 -3 -9 -13 0 -63 -96
-55 -104 4 -3 2 -6 -4 -6 -10 0 -13 -14 -14 -57 -1 -13 -4 -23 -8 -23 -11 0
-1 -109 16 -175 8 -33 18 -70 20 -82 3 -13 10 -23 15 -23 5 0 6 -4 3 -10 -3
-5 -1 -10 5 -10 7 0 10 -7 6 -15 -3 -8 -1 -15 4 -15 6 0 10 -5 10 -11 0 -6 9
-24 21 -40 11 -16 17 -29 12 -29 -4 0 0 -5 10 -11 9 -5 17 -17 17 -24 0 -8 5
-15 10 -15 6 0 10 -6 10 -14 0 -8 3 -16 8 -18 4 -1 20 -19 36 -38 32 -39 94
-107 122 -132 11 -9 24 -23 30 -30 24 -28 72 -66 78 -61 3 4 6 -1 6 -11 0 -9
5 -14 10 -11 6 3 13 -1 16 -9 3 -9 10 -16 15 -16 10 0 24 -10 62 -45 12 -12
25 -22 30 -23 12 -3 61 -36 68 -45 3 -5 9 -8 13 -8 13 3 66 -30 66 -40 0 -6 7
-8 15 -5 9 3 18 -1 21 -9 3 -7 12 -11 20 -8 8 3 14 0 14 -6 0 -6 5 -11 11 -11
5 0 34 -11 62 -24 48 -23 81 -36 100 -41 4 -2 8 -3 10 -5 1 -1 9 -3 17 -5 8
-2 39 -13 68 -24 29 -11 54 -19 55 -19 12 1 104 -16 112 -21 6 -3 43 -6 82 -6
40 0 73 -3 73 -7 0 -4 10 -4 23 0 12 4 43 7 70 6 26 0 47 3 47 8 0 5 6 8 13 7
28 -3 58 2 53 9 -3 4 5 8 17 9 32 1 67 14 67 25 0 5 4 7 9 4 5 -3 14 1 21 9 7
8 17 15 22 15 13 0 98 92 98 107 0 6 4 13 10 15 5 2 11 13 13 25 2 12 6 26 10
29 4 4 7 16 7 26 0 10 6 18 13 18 9 0 8 3 -2 9 -7 5 -9 11 -4 14 17 11 0 206
-19 218 -5 3 -9 10 -9 15 2 26 -58 164 -71 164 -4 0 -8 6 -8 13 0 32 -205 277
-232 277 -5 0 -8 7 -8 15 0 8 -5 15 -11 15 -6 0 -20 11 -31 26 -11 14 -22 23
-25 21 -2 -3 -17 7 -32 22 -43 39 -59 51 -70 51 -5 0 -11 4 -13 8 -5 12 -95
72 -108 72 -6 0 -8 5 -5 10 3 6 -3 10 -14 10 -12 0 -21 4 -21 9 0 9 -56 35
-64 30 -3 -2 -12 5 -20 16 -8 11 -18 17 -21 13 -4 -4 -14 0 -22 8 -8 8 -19 12
-24 9 -5 -4 -9 -2 -9 3 0 5 -8 12 -17 14 -10 3 -22 6 -28 7 -5 2 -19 8 -30 14
-11 6 -23 10 -27 9 -5 -1 -8 3 -8 9 0 6 -7 9 -15 5 -8 -3 -15 -2 -15 3 0 4 -6
8 -12 9 -17 1 -39 7 -60 17 -10 4 -29 8 -42 9 -13 0 -22 4 -20 8 3 4 -4 7 -13
7 -18 -1 -78 8 -78 11 0 1 -13 3 -30 5 -16 2 -41 7 -53 10 -18 4 -22 3 -16 -7
5 -7 -4 -5 -19 5 -15 9 -27 14 -27 10z"/>
</g>
</svg>
